PathFileType	4	(X/Y/Z)	S01_0003_Gait_markers.trc
DataRate	CameraRate	NumFrames	NumMarkers	Units	OrigDataRate	OrigDataStartFrame	OrigNumFrames
250.000000	250.000000	4	54	mm	250.000000	235	314
Frame#	Time	HEAD_ANT			R_HEAD			L_HEAD			C7			R_BACK			L_BACK			STERNUM			R_ACROMION			R_HUM_PROX			R_HUM_ANT			R_HUM_POST			R_ELBOW_LAT			R_ELBOW_MED			R_FOREARM			R_WIRST_LAT			R_WRITS_MED			R_HAND			L_ACROMION			L_HUM_PROX			L_HUM_ANT			L_HUM_POST			L_ELBOW_LAT			L_ELBOW_MED			L_FOREARM			L_WRIST_LAT			L_WIRST_MED			L_HAND			R_ILIAC			SACRUM			L_ILIAC			R_GTROCH			R_THIGH__1			R_THIGH_2			R_THIGH_3			R_THIGH_4			R_SHANK_1			R_SHANK_2			R_SHANK_3			R_SHANK_4			R_HEEL			R_FOOT_LAT			R_FOOT_MED			L_GTROCH			L_THIGH_1			L_THIGH_2			L_THIGH_3			L_THIGH_4			L_SHANK_1			L_SHANK_2			L_SHANK_3			L_SHANK_4			L_HEEL			L_FOOT_LAT			L_FOOT_MED			
		X1	Y1	Z1	X2	Y2	Z2	X3	Y3	Z3	X4	Y4	Z4	X5	Y5	Z5	X6	Y6	Z6	X7	Y7	Z7	X8	Y8	Z8	X9	Y9	Z9	X10	Y10	Z10	X11	Y11	Z11	X12	Y12	Z12	X13	Y13	Z13	X14	Y14	Z14	X15	Y15	Z15	X16	Y16	Z16	X17	Y17	Z17	X18	Y18	Z18	X19	Y19	Z19	X20	Y20	Z20	X21	Y21	Z21	X22	Y22	Z22	X23	Y23	Z23	X24	Y24	Z24	X25	Y25	Z25	X26	Y26	Z26	X27	Y27	Z27	X28	Y28	Z28	X29	Y29	Z29	X30	Y30	Z30	X31	Y31	Z31	X32	Y32	Z32	X33	Y33	Z33	X34	Y34	Z34	X35	Y35	Z35	X36	Y36	Z36	X37	Y37	Z37	X38	Y38	Z38	X39	Y39	Z39	X40	Y40	Z40	X41	Y41	Z41	X42	Y42	Z42	X43	Y43	Z43	X44	Y44	Z44	X45	Y45	Z45	X46	Y46	Z46	X47	Y47	Z47	X48	Y48	Z48	X49	Y49	Z49	X50	Y50	Z50	X51	Y51	Z51	X52	Y52	Z52	X53	Y53	Z53	X54	Y54	Z54	

236	0.9400000000000001	1512.73095703125	352.1858520507812	1747.000122070312	1450.357543945312	275.5144958496094	1700.602783203125	1453.582641601562	422.0148315429688	1698.404907226562	1311.776977539062	346.7021179199219	1530.40966796875	1240.400024414062	275.2626037597656	1333.801879882812	1244.170532226562	418.4856262207031	1334.622192382812	1488.817504882812	339.4115295410156	1369.724731445312	1389.786499023438	171.1097259521484	1483.704467773438	1354.311889648438	76.39983367919922	1323.797973632812	1416.970336914062	72.94249725341797	1238.942626953125	1295.5009765625	63.32360458374023	1239.688354492188	1342.447875976562	54.82966232299805	1134.192626953125	1320.641357421875	135.2166595458984	1128.429809570312	1453.985717773438	55.27329254150391	956.0750732421875	1493.972778320312	95.86772918701172	892.0607299804688	1429.479858398438	53.38737106323242	864.9664306640625	1504.472778320312	39.79600524902344	804.164794921875	1396.372192382812	511.8160095214844	1484.855346679688	1383.707641601562	607.104736328125	1315.95751953125	1446.107055664062	597.6610107421875	1235.823608398438	1328.050048828125	636.237060546875	1237.437255859375	1387.421997070312	635.0772094726562	1133.284790039062	1330.811157226562	582.4386596679688	1127.890258789062	1507.719482421875	591.892333984375	972.24072265625	1541.484619140625	532.6016845703125	920.6763305664062	1503.62158203125	592.9505615234375	886.901611328125	1586.485717773438	572.5025634765625	844.9063110351562	1394.363647460938	170.1561584472656	1083.2236328125	1259.418212890625	332.93994140625	1054.93310546875	1375.613891601562	512.6543579101562	1074.238891601562	1358.500244140625	145.9608306884766	932.6129150390625	1475.399291992188	162.7388458251953	664.373291015625	1525.701049804688	158.8993377685547	694.5097045898438	1556.947387695312	189.7435302734375	596.002685546875	1493.297241210938	181.5930328369141	585.7527465820312	1473.014770507812	169.3612213134766	373.1499633789062	1523.50341796875	186.6248931884766	344.4287719726562	1506.6298828125	201.3853302001953	260.9862976074219	1445.717041015625	186.8513031005859	275.9775390625	1375.153198242188	263.0068359375	68.89995574951172	1535.6689453125	182.5021209716797	33.22687530517578	1585.454833984375	271.9473876953125	44.77496719360352	1334.6162109375	512.5053100585938	961.5242919921875	1379.461791992188	490.2496032714844	669.103759765625	1329.2880859375	505.1668090820312	696.2032470703125	1300.822631835938	468.8519592285156	598.9158325195312	1364.652465820312	464.0304565429688	592.795654296875	1281.822875976562	445.6017150878906	331.3873596191406	1222.232421875	445.3646545410156	318.7095947265625	1207.177001953125	424.7875061035156	234.9858703613281	1271.320678710938	418.8775634765625	232.2760925292969	1144.648193359375	342.8144226074219	57.70666885375977	1313.189575195312	423.6874084472656	19.96738815307617	1356.901489257812	319.6099853515625	27.0748348236084	
237	0.9440000000000001	1518.136962890625	351.9833679199219	1746.324829101562	1455.648315429688	275.4318542480469	1699.8798828125	1459.252807617188	421.900390625	1697.848022460938	1317.143188476562	346.7208862304688	1529.765747070312	1245.534545898438	275.7277526855469	1333.021362304688	1249.669067382812	418.8125610351562	1333.979614257812	1494.113891601562	339.462646484375	1369.05078125	1394.788330078125	171.16259765625	1482.971801757812	1358.83154296875	76.65514373779297	1323.044555664062	1421.53515625	72.91412353515625	1238.260986328125	1300.074951171875	63.68214416503906	1238.9619140625	1347.075073242188	55.04983520507812	1133.416381835938	1325.554077148438	135.3217010498047	1127.5810546875	1458.436279296875	54.36096954345703	955.3997192382812	1498.724609375	95.40540313720703	891.5345458984375	1433.904663085938	53.20878601074219	864.3211669921875	1508.883544921875	39.4022102355957	803.5829467773438	1401.919555664062	511.829345703125	1484.251098632812	1389.595947265625	607.1100463867188	1315.31005859375	1452.269897460938	597.7236328125	1235.29931640625	1334.390869140625	636.6259155273438	1236.8125	1393.873413085938	635.3464965820312	1132.748168945312	1336.934448242188	582.9773559570312	1126.958984375	1514.546142578125	591.3695678710938	972.24560546875	1548.052368164062	531.9812622070312	920.7553100585938	1510.925903320312	593.4408569335938	887.4199829101562	1593.87744140625	571.4112548828125	845.0875854492188	1399.570678710938	170.0700073242188	1082.423950195312	1264.694458007812	332.8279113769531	1054.435668945312	1380.83984375	512.748291015625	1073.58544921875	1364.389770507812	146.3721160888672	932.1329956054688	1481.074340820312	163.1411590576172	663.642333984375	1531.17724609375	159.166259765625	694.0596313476562	1562.73388671875	190.2956085205078	595.4846801757812	1499.0234375	182.6411590576172	585.0988159179688	1482.82568359375	170.3036804199219	371.7257690429688	1533.839721679688	187.1159515380859	344.3479309082031	1519.54443359375	201.5596008300781	260.4744567871094	1457.771728515625	187.4712066650391	274.0688781738281	1392.131713867188	263.2755432128906	65.01020812988281	1553.871459960938	183.3914337158203	32.78562164306641	1602.7763671875	273.171142578125	45.35173416137695	1339.31689453125	512.5186767578125	961.3223876953125	1382.051879882812	490.4556884765625	668.7584228515625	1332.196411132812	505.2351989746094	695.9779052734375	1303.441162109375	469.4996337890625	599.7176513671875	1366.626342773438	463.7285766601562	592.2891845703125	1282.861450195312	446.0947265625	331.9262390136719	1223.001953125	445.3203735351562	319.0670776367188	1207.77685546875	424.7586059570312	235.4127502441406	1271.79931640625	418.9562377929688	232.4963226318359	1144.813232421875	342.6294250488281	58.37593078613281	1313.043090820312	423.5923767089844	20.0428638458252	1356.868530273438	319.7566528320312	27.23087692260742	
238	0.9480000000000001	1523.578002929688	351.8758850097656	1745.505981445312	1461.118774414062	275.1818237304688	1698.992309570312	1464.54443359375	421.7447509765625	1697.139404296875	1322.489501953125	346.8151550292969	1529.130737304688	1250.7724609375	276.0405578613281	1332.286987304688	1254.996459960938	418.8816528320312	1333.231689453125	1499.501220703125	339.3406372070312	1368.177734375	1399.873901367188	171.2149658203125	1482.245971679688	1363.377807617188	76.91666412353516	1322.2705078125	1426.140991210938	72.91416931152344	1237.428100585938	1304.449584960938	64.16419219970703	1238.40185546875	1351.516723632812	55.26327133178711	1132.688232421875	1330.283935546875	135.5880126953125	1126.870483398438	1463.02490234375	54.21877288818359	954.7569580078125	1503.476318359375	95.06526184082031	890.8457641601562	1438.4755859375	53.12345886230469	863.4974365234375	1513.250122070312	38.94550704956055	802.9313354492188	1407.4853515625	511.9585266113281	1483.547607421875	1395.54296875	607.1513061523438	1314.677734375	1458.2412109375	597.5236206054688	1234.755004882812	1340.583740234375	637.0348510742188	1236.105834960938	1400.302734375	635.5828857421875	1132.142700195312	1343.106689453125	583.3985595703125	1126.170654296875	1521.453491210938	590.9977416992188	972.087890625	1554.778930664062	531.3058471679688	920.8325805664062	1518.1279296875	592.069091796875	886.7090454101562	1601.158325195312	570.3624267578125	845.4224853515625	1404.693237304688	170.2221527099609	1081.560546875	1269.97021484375	332.8611450195312	1053.871459960938	1385.963256835938	512.8169555664062	1072.830810546875	1369.670654296875	146.7062072753906	931.4367065429688	1486.645263671875	163.8943481445312	662.8693237304688	1536.593627929688	159.7554931640625	693.4315795898438	1568.531494140625	190.9712524414062	595.1063232421875	1504.810791015625	183.3313293457031	584.5006103515625	1492.321166992188	171.0116729736328	370.0982360839844	1544.2490234375	187.7573394775391	343.9672241210938	1531.224853515625	202.1103210449219	259.9746704101562	1469.757446289062	188.0831451416016	272.0770568847656	1409.148071289062	263.5145263671875	61.49337768554688	1571.877075195312	184.1797790527344	32.30043792724609	1619.945922851562	274.5328979492188	45.76548004150391	1344.104248046875	512.177490234375	960.65966796875	1384.798461914062	490.5836181640625	668.361572265625	1334.9267578125	505.1332397460938	695.8042602539062	1305.543334960938	469.4356079101562	599.6405639648438	1369.064331054688	464.0125732421875	592.0200805664062	1283.63134765625	446.0329284667969	332.1179504394531	1223.693969726562	445.3802185058594	319.5434265136719	1208.390747070312	424.6511840820312	235.7802734375	1272.296997070312	419.0611572265625	232.7140197753906	1144.933227539062	342.3369750976562	58.92649078369141	1312.901123046875	423.5120239257812	20.07572555541992	1356.780883789062	319.5260314941406	27.15645790100098	
239	0.9520000000000001	1529.079467773438	351.7818603515625	1744.758178710938	1466.541625976562	275.0812072753906	1698.201904296875	1470.138549804688	421.5625	1696.536987304688	1327.90380859375	347.0278625488281	1528.4951171875	1256.103271484375	276.366943359375	1331.600219726562	1260.519897460938	418.8892517089844	1332.544067382812	1504.730102539062	339.4295043945312	1367.332641601562	1404.971557617188	171.2936248779297	1481.384155273438	1368.099487304688	77.08838653564453	1321.5537109375	1430.810180664062	72.75021362304688	1236.582885742188	1309.053588867188	64.59996795654297	1237.562133789062	1355.729248046875	55.50981903076172	1131.9990234375	1335.027465820312	135.9575805664062	1126.0712890625	1467.469482421875	53.84672164916992	953.9141235351562	1508.19970703125	94.64803314208984	890.0445556640625	1442.975952148438	53.03035354614258	862.6771850585938	1517.701782226562	38.38846206665039	802.15869140625	1413.398681640625	511.999267578125	1482.604614257812	1401.716064453125	607.3060302734375	1314.0283203125	1464.235717773438	597.3577270507812	1234.119384765625	1346.804809570312	637.3765258789062	1235.303100585938	1406.692993164062	635.9373168945312	1131.457641601562	1349.445068359375	583.9325561523438	1125.393310546875	1528.373779296875	590.5264282226562	972.0729370117188	1561.514404296875	530.6002807617188	920.8316650390625	1525.499755859375	592.3665771484375	887.0051879882812	1608.446655273438	569.3616943359375	845.5296630859375	1409.909790039062	170.2712860107422	1080.635498046875	1275.269653320312	332.762939453125	1053.26953125	1391.567626953125	512.9163818359375	1071.995483398438	1374.83251953125	146.9677276611328	930.58349609375	1492.100219726562	164.3568115234375	662.1646118164062	1542.110717773438	159.9458923339844	692.6551513671875	1574.31103515625	191.6156921386719	594.6264038085938	1510.232543945312	184.2248840332031	583.6720581054688	1502.021240234375	171.5797729492188	368.8917541503906	1554.4267578125	188.5098724365234	343.9134521484375	1544.128295898438	202.2659301757812	259.6513061523438	1481.69677734375	188.7319946289062	269.9530029296875	1426.344604492188	264.2384033203125	58.05093002319336	1589.914428710938	185.39208984375	32.12943267822266	1637.335693359375	275.6573181152344	46.60172271728516	1349.069213867188	512.3106079101562	960.2315673828125	1387.599243164062	490.8233642578125	667.9312744140625	1337.624389648438	505.2601318359375	695.8861694335938	1307.921997070312	469.4097595214844	599.8256225585938	1371.226928710938	464.3833618164062	591.6979370117188	1284.48876953125	446.2406311035156	332.2767028808594	1224.512573242188	445.3740844726562	320.0115051269531	1208.989013671875	424.4546813964844	236.3344421386719	1272.821166992188	419.1832580566406	232.8446502685547	1145.090454101562	342.0226745605469	59.50546264648438	1312.799072265625	423.4208068847656	20.07817077636719	1356.823486328125	319.5762634277344	27.19270324707031	
